<svg width="500" height="140" xmlns="http://www.w3.org/2000/svg" viewBox="0 0 500 140">
  <!-- D - Red (geometric with perfect circle on right) -->
  <path d="M 20 20 L 20 120 L 60 120 C 90 120 100 110 100 85 L 100 55 C 100 30 90 20 60 20 Z M 35 35 L 60 35 C 77 35 85 43 85 55 L 85 85 C 85 97 77 105 60 105 L 35 105 Z" fill="#E53935"/>
  
  <!-- B - Red (geometric with perfect circle arcs) -->
  <path d="M 115 20 L 115 120 L 155 120 C 180 120 190 110 190 95 C 190 85 185 78 175 75 C 185 72 190 65 190 55 C 190 40 180 30 155 30 L 115 30 M 130 35 L 155 35 C 172 35 175 42 175 55 C 175 68 172 70 155 70 L 130 70 M 130 75 L 155 75 C 172 75 175 82 175 95 C 175 108 172 105 155 105 L 130 105 Z" fill="#E53935"/>
  
  <!-- 4 - Green (open center, with rounded corners) -->
  <g fill="#43A047">
    <!-- Vertical bar on right -->
    <rect x="235" y="20" width="15" height="100" rx="7.5"/>
    <!-- Horizontal crossbar -->
    <path d="M 200 60 L 250 60 L 250 75 L 200 75 Z"/>
    <!-- Diagonal/vertical on left -->
    <path d="M 200 20 L 215 20 L 215 75 L 200 75 Z"/>
  </g>
  
  <!-- S - Blue (geometric with perfect circles) -->
  <path d="M 285 35 C 285 27 293 20 305 20 C 317 20 325 27 325 35 L 325 40 L 310 40 L 310 35 C 310 32 308 30 305 30 C 302 30 300 32 300 35 L 300 47 C 300 50 302 52 305 52 L 315 52 C 327 52 335 60 335 72 L 335 85 C 335 93 327 100 315 100 C 303 100 295 93 295 85 L 295 80 L 310 80 L 310 85 C 310 88 312 90 315 90 C 318 90 320 88 320 85 L 320 72 C 320 69 318 67 315 67 L 305 67 C 293 67 285 59 285 47 Z" fill="#1E88E5"/>
  
  <!-- c - Blue (geometric with perfect circles, aligned to baseline) -->
  <path d="M 350 65 C 350 55 358 48 370 48 C 380 48 387 53 388 60 L 373 60 C 372 57 371 56 370 56 C 367 56 365 58 365 65 L 365 75 C 365 82 367 84 370 84 C 371 84 372 83 373 80 L 388 80 C 387 87 380 92 370 92 C 358 92 350 85 350 75 Z" fill="#1E88E5"/>
  
  <!-- i - Blue (geometric with circular dot and rounded bottom, aligned to baseline) -->
  <g fill="#1E88E5">
    <!-- Dot (perfect circle) -->
    <circle cx="407.5" cy="35" r="7.5"/>
    <!-- Stem (rounded bottom) -->
    <rect x="400" y="48" width="15" height="44" rx="7.5"/>
  </g>
</svg>
